<svg width="188" height="54" viewBox="0 0 188 54" fill="none" xmlns="http://www.w3.org/2000/svg">
<path d="M5.42228 43.0526C4.79828 43.0526 4.25828 42.8366 3.80228 42.4046C3.34628 41.9726 3.11828 41.4686 3.11828 40.8926V15.5486C3.11828 14.9246 3.35828 14.3846 3.83828 13.9286C4.34228 13.4486 4.93028 13.2086 5.60228 13.2086C6.34628 13.2086 6.97028 13.5326 7.47428 14.1806L23.6743 34.1246L23.9623 34.7006V15.0806C23.9623 14.5046 24.1903 14.0006 24.6463 13.5686C25.1023 13.1366 25.6423 12.9206 26.2663 12.9206C26.8903 12.9206 27.4303 13.1366 27.8863 13.5686C28.3663 14.0006 28.6063 14.5046 28.6063 15.0806V40.2446C28.6063 40.8686 28.3543 41.4206 27.8503 41.9006C27.3463 42.3566 26.7583 42.5846 26.0863 42.5846C25.7503 42.5846 25.4143 42.5006 25.0783 42.3326C24.7423 42.1406 24.4543 41.9006 24.2143 41.6126L8.05028 21.7766L7.76228 21.1646V40.8926C7.76228 41.4686 7.52228 41.9726 7.04228 42.4046C6.58628 42.8366 6.04628 43.0526 5.42228 43.0526ZM42.6522 43.5206C40.8042 43.5206 39.1362 43.0886 37.6482 42.2246C36.1842 41.3606 35.0322 40.1606 34.1922 38.6246C33.3762 37.0886 32.9682 35.3486 32.9682 33.4046C32.9682 31.4846 33.3762 29.7566 34.1922 28.2206C35.0322 26.6846 36.1842 25.4846 37.6482 24.6206C39.1362 23.7566 40.8042 23.3246 42.6522 23.3246C44.5002 23.3246 46.1562 23.7566 47.6202 24.6206C49.0842 25.4846 50.2242 26.6846 51.0402 28.2206C51.8802 29.7566 52.3002 31.4846 52.3002 33.4046C52.3002 35.3486 51.8802 37.0886 51.0402 38.6246C50.2242 40.1606 49.0842 41.3606 47.6202 42.2246C46.1562 43.0886 44.5002 43.5206 42.6522 43.5206ZM42.6522 39.2006C44.2362 39.2006 45.5202 38.6726 46.5042 37.6166C47.4882 36.5366 47.9802 35.1326 47.9802 33.4046C47.9802 31.7006 47.4882 30.3206 46.5042 29.2646C45.5202 28.1846 44.2362 27.6446 42.6522 27.6446C41.0442 27.6446 39.7482 28.1846 38.7642 29.2646C37.7802 30.3206 37.2882 31.7006 37.2882 33.4046C37.2882 35.1326 37.7802 36.5366 38.7642 37.6166C39.7482 38.6726 41.0442 39.2006 42.6522 39.2006ZM65.4093 23.6126C66.4173 23.6126 67.3413 23.8286 68.1813 24.2606C69.0453 24.6926 69.7173 25.2926 70.1973 26.0606C70.6773 26.8046 70.9173 27.6446 70.9173 28.5806C70.9173 29.7086 70.5933 30.7046 69.9453 31.5686C69.2973 32.4086 68.4333 33.0686 67.3533 33.5486C66.9693 33.6446 66.6933 33.6926 66.5253 33.6926C65.9253 33.6926 65.4093 33.4886 64.9773 33.0806C64.5453 32.6486 64.3293 32.1326 64.3293 31.5326C64.3293 31.0766 64.4493 30.6686 64.6893 30.3086C64.9533 29.9246 65.2893 29.6606 65.6973 29.5166C65.9133 29.4206 66.1173 29.2766 66.3093 29.0846C66.5013 28.8926 66.5973 28.7246 66.5973 28.5806C66.5973 28.3166 66.4653 28.0766 66.2013 27.8606C65.9613 27.6446 65.6973 27.5366 65.4093 27.5366H61.7013C61.8933 28.2566 61.9893 28.9886 61.9893 29.7326C61.9653 31.1486 61.9173 33.0566 61.8453 35.4566C61.7733 37.8566 61.7133 39.7046 61.6653 41.0006C61.6173 41.6006 61.3893 42.1046 60.9813 42.5126C60.5733 42.9446 60.0813 43.1606 59.5053 43.1606C58.9053 43.1606 58.3893 42.9446 57.9573 42.5126C57.5493 42.0806 57.3453 41.5766 57.3453 41.0006L57.4533 36.7526C57.5973 32.9606 57.6693 30.5726 57.6693 29.5886C57.6693 28.4366 57.3333 27.6686 56.6613 27.2846C56.3013 27.0926 56.0373 26.8406 55.8693 26.5286C55.7253 26.1926 55.6533 25.8446 55.6533 25.4846C55.6533 24.8846 55.8453 24.4286 56.2293 24.1166C56.6133 23.7806 57.1173 23.6126 57.7413 23.6126H65.4093ZM80.7318 28.6526V36.3926C80.7318 37.7366 81.4638 38.6126 82.9277 39.0206C83.4558 39.1646 83.8998 39.4526 84.2598 39.8846C84.6198 40.3166 84.7998 40.7846 84.7998 41.2886C84.7998 41.8406 84.5718 42.3086 84.1158 42.6926C83.6838 43.0766 83.1678 43.2686 82.5678 43.2686C80.5758 43.2686 79.0518 42.6926 77.9958 41.5406C76.9398 40.3886 76.4118 38.6966 76.4118 36.4646V28.6526H75.5118C74.9118 28.6526 74.3958 28.4486 73.9638 28.0406C73.5558 27.6086 73.3518 27.0926 73.3518 26.4926C73.3518 25.8926 73.5558 25.3886 73.9638 24.9806C74.3958 24.5486 74.9118 24.3326 75.5118 24.3326H76.4118V18.5726C76.4118 17.9726 76.6158 17.4686 77.0238 17.0606C77.4558 16.6286 77.9718 16.4126 78.5718 16.4126C79.1718 16.4126 79.6758 16.6286 80.0838 17.0606C80.5158 17.4686 80.7318 17.9726 80.7318 18.5726V24.3326H83.5398C84.1398 24.3326 84.6438 24.5486 85.0518 24.9806C85.4838 25.3886 85.6998 25.8926 85.6998 26.4926C85.6998 27.0926 85.4838 27.6086 85.0518 28.0406C84.6438 28.4486 84.1398 28.6526 83.5398 28.6526H80.7318ZM107.496 39.1646C107.904 39.5006 108.204 39.8246 108.396 40.1366C108.612 40.4486 108.72 40.8326 108.72 41.2886C108.72 41.8166 108.48 42.2366 108 42.5486C107.52 42.8606 106.956 43.0166 106.308 43.0166C105.132 43.0166 104.196 42.5246 103.5 41.5406C102.828 40.5326 102.492 39.0086 102.492 36.9686L102.528 32.0006C102.528 30.8006 102.156 29.8166 101.412 29.0486C100.692 28.2566 99.7803 27.8606 98.6763 27.8606C96.0843 27.8606 94.7163 29.3126 94.5723 32.2166L94.5003 41.1806C94.5003 41.7806 94.2843 42.2846 93.8523 42.6926C93.4443 43.1246 92.9403 43.3406 92.3403 43.3406C91.7403 43.3406 91.2243 43.1246 90.7923 42.6926C90.3843 42.2846 90.1803 41.7806 90.1803 41.1806C90.1803 39.1406 90.2043 35.4446 90.2523 30.0926C90.3243 24.7406 90.3963 20.2406 90.4683 16.5926C90.4683 15.3206 90.2283 14.4926 89.7483 14.1086C89.3403 13.7726 89.0283 13.4486 88.8123 13.1366C88.6203 12.8246 88.5243 12.4406 88.5243 11.9846C88.5243 11.4566 88.7643 11.0366 89.2443 10.7246C89.7243 10.4126 90.2883 10.2566 90.9363 10.2566C92.1363 10.2566 93.0723 10.7846 93.7443 11.8406C94.4403 12.8726 94.7763 14.4566 94.7523 16.5926L94.6443 25.1606C95.8203 24.2966 97.1643 23.8646 98.6763 23.8646C100.212 23.8646 101.604 24.1646 102.852 24.7646C104.1 25.3646 105.072 26.1926 105.768 27.2486C106.488 28.3046 106.848 29.4806 106.848 30.7766L106.812 36.9686C106.812 38.0726 107.04 38.8046 107.496 39.1646ZM121.727 43.1606C119.855 43.1606 118.079 42.7046 116.399 41.7926C114.719 40.8566 113.399 39.6086 112.439 38.0486C112.247 37.7126 112.151 37.3166 112.151 36.8606C112.151 36.1166 112.331 35.5286 112.691 35.0966C113.075 34.6646 113.579 34.4486 114.203 34.4486C114.731 34.4486 115.187 34.5566 115.571 34.7726C115.955 34.9886 116.291 35.3366 116.579 35.8166C117.035 36.5846 117.743 37.2206 118.703 37.7246C119.687 38.2046 120.695 38.4446 121.727 38.4446C125.183 38.4446 126.911 37.2446 126.911 34.8446C126.911 33.8126 126.479 32.8766 125.615 32.0366C124.775 31.1966 123.431 30.3446 121.583 29.4806C119.399 28.4726 117.695 27.5606 116.471 26.7446C115.271 25.9046 114.407 25.0166 113.879 24.0806C113.351 23.1206 113.087 21.9926 113.087 20.6966C113.087 19.2086 113.483 17.8886 114.275 16.7366C115.067 15.5606 116.159 14.6486 117.551 14.0006C118.943 13.3286 120.503 12.9926 122.231 12.9926C124.151 12.9926 125.915 13.4246 127.523 14.2886C129.131 15.1286 130.355 16.2806 131.195 17.7446C131.435 18.1286 131.555 18.5246 131.555 18.9326C131.555 19.5086 131.363 20.0126 130.979 20.4446C130.619 20.8766 130.163 21.0926 129.611 21.0926C129.203 21.0926 128.783 20.9846 128.351 20.7686C127.919 20.5286 127.583 20.2406 127.343 19.9046C126.791 19.1366 126.095 18.5726 125.255 18.2126C124.439 17.8526 123.431 17.6726 122.231 17.6726C120.815 17.6726 119.699 17.9366 118.883 18.4646C118.091 18.9686 117.695 19.7126 117.695 20.6966C117.695 21.2966 117.839 21.8006 118.127 22.2086C118.439 22.5926 118.955 22.9886 119.675 23.3966C120.419 23.8046 121.631 24.3926 123.311 25.1606C126.239 26.5286 128.339 27.9566 129.611 29.4446C130.907 30.9326 131.555 32.7326 131.555 34.8446C131.555 36.5006 131.147 37.9646 130.331 39.2366C129.515 40.4846 128.363 41.4566 126.875 42.1526C125.387 42.8246 123.671 43.1606 121.727 43.1606ZM141.798 28.6526V36.3926C141.798 37.7366 142.53 38.6126 143.994 39.0206C144.522 39.1646 144.966 39.4526 145.326 39.8846C145.686 40.3166 145.866 40.7846 145.866 41.2886C145.866 41.8406 145.638 42.3086 145.182 42.6926C144.75 43.0766 144.234 43.2686 143.634 43.2686C141.642 43.2686 140.118 42.6926 139.062 41.5406C138.006 40.3886 137.478 38.6966 137.478 36.4646V28.6526H136.578C135.978 28.6526 135.462 28.4486 135.03 28.0406C134.622 27.6086 134.418 27.0926 134.418 26.4926C134.418 25.8926 134.622 25.3886 135.03 24.9806C135.462 24.5486 135.978 24.3326 136.578 24.3326H137.478V18.5726C137.478 17.9726 137.682 17.4686 138.09 17.0606C138.522 16.6286 139.038 16.4126 139.638 16.4126C140.238 16.4126 140.742 16.6286 141.15 17.0606C141.582 17.4686 141.798 17.9726 141.798 18.5726V24.3326H144.606C145.206 24.3326 145.71 24.5486 146.118 24.9806C146.55 25.3886 146.766 25.8926 146.766 26.4926C146.766 27.0926 146.55 27.6086 146.118 28.0406C145.71 28.4486 145.206 28.6526 144.606 28.6526H141.798ZM166.223 39.4166C166.895 39.6326 167.375 39.8846 167.663 40.1726C167.975 40.4606 168.131 40.8566 168.131 41.3606C168.131 41.9606 167.867 42.4646 167.339 42.8726C166.835 43.3046 166.223 43.5206 165.503 43.5206C164.423 43.5206 163.487 43.1966 162.695 42.5486C161.927 41.9006 161.471 41.0486 161.327 39.9926C161.159 38.9846 161.075 37.7006 161.075 36.1406C161.075 35.2046 161.087 34.4846 161.111 33.9806C160.247 34.5086 159.083 35.0366 157.619 35.5646C156.203 36.0446 155.195 36.4886 154.595 36.8966C154.019 37.3046 153.731 37.7726 153.731 38.3006C153.731 38.6126 153.863 38.8646 154.127 39.0566C154.415 39.2486 154.763 39.3446 155.171 39.3446C155.459 39.3446 155.771 39.2966 156.107 39.2006C156.467 39.0806 156.767 38.9126 157.007 38.6966C157.343 38.3606 157.799 38.1926 158.375 38.1926C158.975 38.1926 159.455 38.3846 159.815 38.7686C160.175 39.1526 160.355 39.6326 160.355 40.2086C160.355 40.4486 160.283 40.7366 160.139 41.0726C160.019 41.3846 159.875 41.6366 159.707 41.8286C158.699 42.9806 157.187 43.5566 155.171 43.5566C153.515 43.5566 152.171 43.1246 151.139 42.2606C150.107 41.3726 149.591 40.2206 149.591 38.8046C149.591 35.7086 152.039 33.4166 156.935 31.9286C158.447 31.4486 159.575 30.9926 160.319 30.5606C161.063 30.1046 161.447 29.6366 161.471 29.1566C161.447 28.6526 161.171 28.2566 160.643 27.9686C160.115 27.6566 159.407 27.5006 158.519 27.5006C156.671 27.5006 155.411 28.1366 154.739 29.4086C154.547 29.7686 154.271 30.0686 153.911 30.3086C153.575 30.5246 153.215 30.6326 152.831 30.6326C152.231 30.6326 151.715 30.4286 151.283 30.0206C150.851 29.5886 150.635 29.0726 150.635 28.4726C150.635 27.5846 151.007 26.7566 151.751 25.9886C152.495 25.1966 153.479 24.5606 154.703 24.0806C155.927 23.6006 157.199 23.3606 158.519 23.3606C160.799 23.3606 162.551 23.8766 163.775 24.9086C164.999 25.9406 165.611 27.4166 165.611 29.3366V29.7326C165.467 34.1006 165.395 36.5726 165.395 37.1486C165.395 37.5326 165.443 37.9886 165.539 38.5166C165.563 38.7086 165.647 38.9006 165.791 39.0926C165.959 39.2606 166.103 39.3686 166.223 39.4166ZM180.827 23.6126C181.835 23.6126 182.759 23.8286 183.599 24.2606C184.463 24.6926 185.135 25.2926 185.615 26.0606C186.095 26.8046 186.335 27.6446 186.335 28.5806C186.335 29.7086 186.011 30.7046 185.363 31.5686C184.715 32.4086 183.851 33.0686 182.771 33.5486C182.387 33.6446 182.111 33.6926 181.943 33.6926C181.343 33.6926 180.827 33.4886 180.395 33.0806C179.963 32.6486 179.747 32.1326 179.747 31.5326C179.747 31.0766 179.867 30.6686 180.107 30.3086C180.371 29.9246 180.707 29.6606 181.115 29.5166C181.331 29.4206 181.535 29.2766 181.727 29.0846C181.919 28.8926 182.015 28.7246 182.015 28.5806C182.015 28.3166 181.883 28.0766 181.619 27.8606C181.379 27.6446 181.115 27.5366 180.827 27.5366H177.119C177.311 28.2566 177.407 28.9886 177.407 29.7326C177.383 31.1486 177.335 33.0566 177.263 35.4566C177.191 37.8566 177.131 39.7046 177.083 41.0006C177.035 41.6006 176.807 42.1046 176.399 42.5126C175.991 42.9446 175.499 43.1606 174.923 43.1606C174.323 43.1606 173.807 42.9446 173.375 42.5126C172.967 42.0806 172.763 41.5766 172.763 41.0006L172.871 36.7526C173.015 32.9606 173.087 30.5726 173.087 29.5886C173.087 28.4366 172.751 27.6686 172.079 27.2846C171.719 27.0926 171.455 26.8406 171.287 26.5286C171.143 26.1926 171.071 25.8446 171.071 25.4846C171.071 24.8846 171.263 24.4286 171.647 24.1166C172.031 23.7806 172.535 23.6126 173.159 23.6126H180.827Z" fill="#1D1D1D"/>
</svg>
