<svg width="188" height="53" viewBox="0 0 188 53" fill="none" xmlns="http://www.w3.org/2000/svg">
<path d="M5.42228 42.576C4.79828 42.576 4.25828 42.36 3.80228 41.928C3.34628 41.496 3.11828 40.992 3.11828 40.416V15.072C3.11828 14.448 3.35828 13.908 3.83828 13.452C4.34228 12.972 4.93028 12.732 5.60228 12.732C6.34628 12.732 6.97028 13.056 7.47428 13.704L23.6743 33.648L23.9623 34.224V14.604C23.9623 14.028 24.1903 13.524 24.6463 13.092C25.1023 12.66 25.6423 12.444 26.2663 12.444C26.8903 12.444 27.4303 12.66 27.8863 13.092C28.3663 13.524 28.6063 14.028 28.6063 14.604V39.768C28.6063 40.392 28.3543 40.944 27.8503 41.424C27.3463 41.88 26.7583 42.108 26.0863 42.108C25.7503 42.108 25.4143 42.024 25.0783 41.856C24.7423 41.664 24.4543 41.424 24.2143 41.136L8.05028 21.3L7.76228 20.688V40.416C7.76228 40.992 7.52228 41.496 7.04228 41.928C6.58628 42.36 6.04628 42.576 5.42228 42.576ZM42.6522 43.044C40.8042 43.044 39.1362 42.612 37.6482 41.748C36.1842 40.884 35.0322 39.684 34.1922 38.148C33.3762 36.612 32.9682 34.872 32.9682 32.928C32.9682 31.008 33.3762 29.28 34.1922 27.744C35.0322 26.208 36.1842 25.008 37.6482 24.144C39.1362 23.28 40.8042 22.848 42.6522 22.848C44.5002 22.848 46.1562 23.28 47.6202 24.144C49.0842 25.008 50.2242 26.208 51.0402 27.744C51.8802 29.28 52.3002 31.008 52.3002 32.928C52.3002 34.872 51.8802 36.612 51.0402 38.148C50.2242 39.684 49.0842 40.884 47.6202 41.748C46.1562 42.612 44.5002 43.044 42.6522 43.044ZM42.6522 38.724C44.2362 38.724 45.5202 38.196 46.5042 37.14C47.4882 36.06 47.9802 34.656 47.9802 32.928C47.9802 31.224 47.4882 29.844 46.5042 28.788C45.5202 27.708 44.2362 27.168 42.6522 27.168C41.0442 27.168 39.7482 27.708 38.7642 28.788C37.7802 29.844 37.2882 31.224 37.2882 32.928C37.2882 34.656 37.7802 36.06 38.7642 37.14C39.7482 38.196 41.0442 38.724 42.6522 38.724ZM65.4093 23.136C66.4173 23.136 67.3413 23.352 68.1813 23.784C69.0453 24.216 69.7173 24.816 70.1973 25.584C70.6773 26.328 70.9173 27.168 70.9173 28.104C70.9173 29.232 70.5933 30.228 69.9453 31.092C69.2973 31.932 68.4333 32.592 67.3533 33.072C66.9693 33.168 66.6933 33.216 66.5253 33.216C65.9253 33.216 65.4093 33.012 64.9773 32.604C64.5453 32.172 64.3293 31.656 64.3293 31.056C64.3293 30.6 64.4493 30.192 64.6893 29.832C64.9533 29.448 65.2893 29.184 65.6973 29.04C65.9133 28.944 66.1173 28.8 66.3093 28.608C66.5013 28.416 66.5973 28.248 66.5973 28.104C66.5973 27.84 66.4653 27.6 66.2013 27.384C65.9613 27.168 65.6973 27.06 65.4093 27.06H61.7013C61.8933 27.78 61.9893 28.512 61.9893 29.256C61.9653 30.672 61.9173 32.58 61.8453 34.98C61.7733 37.38 61.7133 39.228 61.6653 40.524C61.6173 41.124 61.3893 41.628 60.9813 42.036C60.5733 42.468 60.0813 42.684 59.5053 42.684C58.9053 42.684 58.3893 42.468 57.9573 42.036C57.5493 41.604 57.3453 41.1 57.3453 40.524L57.4533 36.276C57.5973 32.484 57.6693 30.096 57.6693 29.112C57.6693 27.96 57.3333 27.192 56.6613 26.808C56.3013 26.616 56.0373 26.364 55.8693 26.052C55.7253 25.716 55.6533 25.368 55.6533 25.008C55.6533 24.408 55.8453 23.952 56.2293 23.64C56.6133 23.304 57.1173 23.136 57.7413 23.136H65.4093ZM80.7318 28.176V35.916C80.7318 37.26 81.4638 38.136 82.9277 38.544C83.4558 38.688 83.8998 38.976 84.2598 39.408C84.6198 39.84 84.7998 40.308 84.7998 40.812C84.7998 41.364 84.5718 41.832 84.1158 42.216C83.6838 42.6 83.1678 42.792 82.5678 42.792C80.5758 42.792 79.0518 42.216 77.9958 41.064C76.9398 39.912 76.4118 38.22 76.4118 35.988V28.176H75.5118C74.9118 28.176 74.3958 27.972 73.9638 27.564C73.5558 27.132 73.3518 26.616 73.3518 26.016C73.3518 25.416 73.5558 24.912 73.9638 24.504C74.3958 24.072 74.9118 23.856 75.5118 23.856H76.4118V18.096C76.4118 17.496 76.6158 16.992 77.0238 16.584C77.4558 16.152 77.9718 15.936 78.5718 15.936C79.1718 15.936 79.6758 16.152 80.0838 16.584C80.5158 16.992 80.7318 17.496 80.7318 18.096V23.856H83.5398C84.1398 23.856 84.6438 24.072 85.0518 24.504C85.4838 24.912 85.6998 25.416 85.6998 26.016C85.6998 26.616 85.4838 27.132 85.0518 27.564C84.6438 27.972 84.1398 28.176 83.5398 28.176H80.7318ZM107.496 38.688C107.904 39.024 108.204 39.348 108.396 39.66C108.612 39.972 108.72 40.356 108.72 40.812C108.72 41.34 108.48 41.76 108 42.072C107.52 42.384 106.956 42.54 106.308 42.54C105.132 42.54 104.196 42.048 103.5 41.064C102.828 40.056 102.492 38.532 102.492 36.492L102.528 31.524C102.528 30.324 102.156 29.34 101.412 28.572C100.692 27.78 99.7803 27.384 98.6763 27.384C96.0843 27.384 94.7163 28.836 94.5723 31.74L94.5003 40.704C94.5003 41.304 94.2843 41.808 93.8523 42.216C93.4443 42.648 92.9403 42.864 92.3403 42.864C91.7403 42.864 91.2243 42.648 90.7923 42.216C90.3843 41.808 90.1803 41.304 90.1803 40.704C90.1803 38.664 90.2043 34.968 90.2523 29.616C90.3243 24.264 90.3963 19.764 90.4683 16.116C90.4683 14.844 90.2283 14.016 89.7483 13.632C89.3403 13.296 89.0283 12.972 88.8123 12.66C88.6203 12.348 88.5243 11.964 88.5243 11.508C88.5243 10.98 88.7643 10.56 89.2443 10.248C89.7243 9.936 90.2883 9.78 90.9363 9.78C92.1363 9.78 93.0723 10.308 93.7443 11.364C94.4403 12.396 94.7763 13.98 94.7523 16.116L94.6443 24.684C95.8203 23.82 97.1643 23.388 98.6763 23.388C100.212 23.388 101.604 23.688 102.852 24.288C104.1 24.888 105.072 25.716 105.768 26.772C106.488 27.828 106.848 29.004 106.848 30.3L106.812 36.492C106.812 37.596 107.04 38.328 107.496 38.688ZM121.727 42.684C119.855 42.684 118.079 42.228 116.399 41.316C114.719 40.38 113.399 39.132 112.439 37.572C112.247 37.236 112.151 36.84 112.151 36.384C112.151 35.64 112.331 35.052 112.691 34.62C113.075 34.188 113.579 33.972 114.203 33.972C114.731 33.972 115.187 34.08 115.571 34.296C115.955 34.512 116.291 34.86 116.579 35.34C117.035 36.108 117.743 36.744 118.703 37.248C119.687 37.728 120.695 37.968 121.727 37.968C125.183 37.968 126.911 36.768 126.911 34.368C126.911 33.336 126.479 32.4 125.615 31.56C124.775 30.72 123.431 29.868 121.583 29.004C119.399 27.996 117.695 27.084 116.471 26.268C115.271 25.428 114.407 24.54 113.879 23.604C113.351 22.644 113.087 21.516 113.087 20.22C113.087 18.732 113.483 17.412 114.275 16.26C115.067 15.084 116.159 14.172 117.551 13.524C118.943 12.852 120.503 12.516 122.231 12.516C124.151 12.516 125.915 12.948 127.523 13.812C129.131 14.652 130.355 15.804 131.195 17.268C131.435 17.652 131.555 18.048 131.555 18.456C131.555 19.032 131.363 19.536 130.979 19.968C130.619 20.4 130.163 20.616 129.611 20.616C129.203 20.616 128.783 20.508 128.351 20.292C127.919 20.052 127.583 19.764 127.343 19.428C126.791 18.66 126.095 18.096 125.255 17.736C124.439 17.376 123.431 17.196 122.231 17.196C120.815 17.196 119.699 17.46 118.883 17.988C118.091 18.492 117.695 19.236 117.695 20.22C117.695 20.82 117.839 21.324 118.127 21.732C118.439 22.116 118.955 22.512 119.675 22.92C120.419 23.328 121.631 23.916 123.311 24.684C126.239 26.052 128.339 27.48 129.611 28.968C130.907 30.456 131.555 32.256 131.555 34.368C131.555 36.024 131.147 37.488 130.331 38.76C129.515 40.008 128.363 40.98 126.875 41.676C125.387 42.348 123.671 42.684 121.727 42.684ZM141.798 28.176V35.916C141.798 37.26 142.53 38.136 143.994 38.544C144.522 38.688 144.966 38.976 145.326 39.408C145.686 39.84 145.866 40.308 145.866 40.812C145.866 41.364 145.638 41.832 145.182 42.216C144.75 42.6 144.234 42.792 143.634 42.792C141.642 42.792 140.118 42.216 139.062 41.064C138.006 39.912 137.478 38.22 137.478 35.988V28.176H136.578C135.978 28.176 135.462 27.972 135.03 27.564C134.622 27.132 134.418 26.616 134.418 26.016C134.418 25.416 134.622 24.912 135.03 24.504C135.462 24.072 135.978 23.856 136.578 23.856H137.478V18.096C137.478 17.496 137.682 16.992 138.09 16.584C138.522 16.152 139.038 15.936 139.638 15.936C140.238 15.936 140.742 16.152 141.15 16.584C141.582 16.992 141.798 17.496 141.798 18.096V23.856H144.606C145.206 23.856 145.71 24.072 146.118 24.504C146.55 24.912 146.766 25.416 146.766 26.016C146.766 26.616 146.55 27.132 146.118 27.564C145.71 27.972 145.206 28.176 144.606 28.176H141.798ZM166.223 38.94C166.895 39.156 167.375 39.408 167.663 39.696C167.975 39.984 168.131 40.38 168.131 40.884C168.131 41.484 167.867 41.988 167.339 42.396C166.835 42.828 166.223 43.044 165.503 43.044C164.423 43.044 163.487 42.72 162.695 42.072C161.927 41.424 161.471 40.572 161.327 39.516C161.159 38.508 161.075 37.224 161.075 35.664C161.075 34.728 161.087 34.008 161.111 33.504C160.247 34.032 159.083 34.56 157.619 35.088C156.203 35.568 155.195 36.012 154.595 36.42C154.019 36.828 153.731 37.296 153.731 37.824C153.731 38.136 153.863 38.388 154.127 38.58C154.415 38.772 154.763 38.868 155.171 38.868C155.459 38.868 155.771 38.82 156.107 38.724C156.467 38.604 156.767 38.436 157.007 38.22C157.343 37.884 157.799 37.716 158.375 37.716C158.975 37.716 159.455 37.908 159.815 38.292C160.175 38.676 160.355 39.156 160.355 39.732C160.355 39.972 160.283 40.26 160.139 40.596C160.019 40.908 159.875 41.16 159.707 41.352C158.699 42.504 157.187 43.08 155.171 43.08C153.515 43.08 152.171 42.648 151.139 41.784C150.107 40.896 149.591 39.744 149.591 38.328C149.591 35.232 152.039 32.94 156.935 31.452C158.447 30.972 159.575 30.516 160.319 30.084C161.063 29.628 161.447 29.16 161.471 28.68C161.447 28.176 161.171 27.78 160.643 27.492C160.115 27.18 159.407 27.024 158.519 27.024C156.671 27.024 155.411 27.66 154.739 28.932C154.547 29.292 154.271 29.592 153.911 29.832C153.575 30.048 153.215 30.156 152.831 30.156C152.231 30.156 151.715 29.952 151.283 29.544C150.851 29.112 150.635 28.596 150.635 27.996C150.635 27.108 151.007 26.28 151.751 25.512C152.495 24.72 153.479 24.084 154.703 23.604C155.927 23.124 157.199 22.884 158.519 22.884C160.799 22.884 162.551 23.4 163.775 24.432C164.999 25.464 165.611 26.94 165.611 28.86V29.256C165.467 33.624 165.395 36.096 165.395 36.672C165.395 37.056 165.443 37.512 165.539 38.04C165.563 38.232 165.647 38.424 165.791 38.616C165.959 38.784 166.103 38.892 166.223 38.94ZM180.827 23.136C181.835 23.136 182.759 23.352 183.599 23.784C184.463 24.216 185.135 24.816 185.615 25.584C186.095 26.328 186.335 27.168 186.335 28.104C186.335 29.232 186.011 30.228 185.363 31.092C184.715 31.932 183.851 32.592 182.771 33.072C182.387 33.168 182.111 33.216 181.943 33.216C181.343 33.216 180.827 33.012 180.395 32.604C179.963 32.172 179.747 31.656 179.747 31.056C179.747 30.6 179.867 30.192 180.107 29.832C180.371 29.448 180.707 29.184 181.115 29.04C181.331 28.944 181.535 28.8 181.727 28.608C181.919 28.416 182.015 28.248 182.015 28.104C182.015 27.84 181.883 27.6 181.619 27.384C181.379 27.168 181.115 27.06 180.827 27.06H177.119C177.311 27.78 177.407 28.512 177.407 29.256C177.383 30.672 177.335 32.58 177.263 34.98C177.191 37.38 177.131 39.228 177.083 40.524C177.035 41.124 176.807 41.628 176.399 42.036C175.991 42.468 175.499 42.684 174.923 42.684C174.323 42.684 173.807 42.468 173.375 42.036C172.967 41.604 172.763 41.1 172.763 40.524L172.871 36.276C173.015 32.484 173.087 30.096 173.087 29.112C173.087 27.96 172.751 27.192 172.079 26.808C171.719 26.616 171.455 26.364 171.287 26.052C171.143 25.716 171.071 25.368 171.071 25.008C171.071 24.408 171.263 23.952 171.647 23.64C172.031 23.304 172.535 23.136 173.159 23.136H180.827Z" fill="white"/>
</svg>
